# xmcd
#
# Track frame offsets:
#	150
#	14689
#	26785
#	39786
#	57614
#	74298
#	85881
#	102659
#	116406
#	129791
#
# Disc length: 2018 seconds
#
# Revision: 2
# Processed by: cddbd v1.5.1PL2 Copyright (c) Steve Scherf et al.
# Submitted via: audiograbber 1.83.01
#
DISCID=8407e00a
DTITLE=Faith Hill - Take Me As I Am
DYEAR=1993
DGENRE=Contemporary Country
TTITLE0=Take Me As I Am
TTITLE1=Wild One
TTITLE2=Just About Now
TTITLE3=Piece Of My Heart
TTITLE4=I've Got This Friend (With Lar
TTITLE5=Life's Too Short To Love Like
TTITLE6=But I Will
TTITLE7=Just Around The Eyes
TTITLE8=Go The Distance
TTITLE9=I Would Be Stronger Than That
EXTD=
EXTT0=
EXTT1=
EXTT2=
EXTT3=
EXTT4=
EXTT5=
EXTT6=
EXTT7=
EXTT8=
EXTT9=
PLAYORDER=
